<svg width="64" height="64" viewBox="0 0 64 64" fill="none" xmlns="http://www.w3.org/2000/svg">
<g clip-path="url(#clip0_1_18)">
<path d="M32 4C14.325 4 -4.75626e-06 15.6375 -4.75626e-06 30C-4.75626e-06 35.95 2.4875 41.4 6.6125 45.7875C4.75 50.7125 0.874995 54.8875 0.812495 54.9375C-0.0125048 55.8125 -0.237505 57.0875 0.237495 58.1875C0.712495 59.2875 1.8 60 3 60C10.6875 60 16.75 56.7875 20.3875 54.2125C24 55.35 27.9 56 32 56C49.675 56 64 44.3625 64 30C64 15.6375 49.675 4 32 4ZM32 50C28.6625 50 25.3625 49.4875 22.2 48.4875L19.3625 47.5875L16.925 49.3125C15.1375 50.575 12.6875 51.9875 9.7375 52.9375C10.65 51.425 11.5375 49.725 12.225 47.9125L13.55 44.4L10.975 41.675C8.7125 39.2625 6 35.275 6 30C6 18.975 17.6625 10 32 10C46.3375 10 58 18.975 58 30C58 41.025 46.3375 50 32 50Z" fill="white"/>
</g>
<defs>
<clipPath id="clip0_1_18">
<rect width="64" height="64" fill="white"/>
</clipPath>
</defs>
</svg>
