<svg width="23" height="18" viewBox="0 0 23 18" fill="none" xmlns="http://www.w3.org/2000/svg">
<path d="M21.3229 0.40625H1.01038C0.578247 0.40625 0.229126 0.755371 0.229126 1.1875V16.8125C0.229126 17.2446 0.578247 17.5938 1.01038 17.5938H21.3229C21.755 17.5938 22.1041 17.2446 22.1041 16.8125V1.1875C22.1041 0.755371 21.755 0.40625 21.3229 0.40625ZM19.0157 2.1665L11.1666 8.26758L3.3175 2.1665H19.0157ZM20.3463 3.11133V15.8359H1.98694V3.11133L1.31311 2.58643L1.9845 3.10889L10.3243 9.59326C10.5642 9.77959 10.8592 9.88074 11.163 9.88074C11.4667 9.88074 11.7617 9.77959 12.0016 9.59326L20.3463 3.11133L21.0201 2.58643L20.0607 1.35352H20.0631L21.0226 2.58643L20.3463 3.11133Z" fill="#55596B"/>
</svg>
