<svg width="22" height="18" viewBox="0 0 22 18" fill="none" xmlns="http://www.w3.org/2000/svg">
<path fill-rule="evenodd" clip-rule="evenodd" d="M3.5 0.75C2.70435 0.75 1.94129 1.06607 1.37868 1.62868C0.816071 2.19129 0.5 2.95435 0.5 3.75V14.25C0.5 15.0456 0.816071 15.8087 1.37868 16.3713C1.94129 16.9339 2.70435 17.25 3.5 17.25H18.5C19.2956 17.25 20.0587 16.9339 20.6213 16.3713C21.1839 15.8087 21.5 15.0456 21.5 14.25V3.75C21.5 2.95435 21.1839 2.19129 20.6213 1.62868C20.0587 1.06607 19.2956 0.75 18.5 0.75H3.5ZM12.5 5.25C12.5 5.05109 12.421 4.86032 12.2803 4.71967C12.1397 4.57902 11.9489 4.5 11.75 4.5C11.5511 4.5 11.3603 4.57902 11.2197 4.71967C11.079 4.86032 11 5.05109 11 5.25V12.75C11 12.9489 11.079 13.1397 11.2197 13.2803C11.3603 13.421 11.5511 13.5 11.75 13.5C11.9489 13.5 12.1397 13.421 12.2803 13.2803C12.421 13.1397 12.5 12.9489 12.5 12.75V5.25ZM14 5.25C14 5.05109 14.079 4.86032 14.2197 4.71967C14.3603 4.57902 14.5511 4.5 14.75 4.5H17.75C17.9489 4.5 18.1397 4.57902 18.2803 4.71967C18.421 4.86032 18.5 5.05109 18.5 5.25C18.5 5.44891 18.421 5.63968 18.2803 5.78033C18.1397 5.92098 17.9489 6 17.75 6H15.5V8.25H17C17.1989 8.25 17.3897 8.32902 17.5303 8.46967C17.671 8.61032 17.75 8.80109 17.75 9C17.75 9.19891 17.671 9.38968 17.5303 9.53033C17.3897 9.67098 17.1989 9.75 17 9.75H15.5V12.75C15.5 12.9489 15.421 13.1397 15.2803 13.2803C15.1397 13.421 14.9489 13.5 14.75 13.5C14.5511 13.5 14.3603 13.421 14.2197 13.2803C14.079 13.1397 14 12.9489 14 12.75V5.25ZM5.636 6.78C6.04 6.205 6.503 6 6.886 6C7.269 6 7.732 6.205 8.136 6.78C8.25044 6.94284 8.42488 7.05355 8.62095 7.08778C8.81702 7.12201 9.01866 7.07694 9.1815 6.9625C9.34434 6.84806 9.45505 6.67362 9.48928 6.47755C9.52351 6.28148 9.47844 6.07984 9.364 5.917C8.738 5.027 7.853 4.5 6.886 4.5C5.92 4.5 5.034 5.027 4.408 5.917C3.788 6.799 3.5 7.917 3.5 9C3.5 10.083 3.788 11.201 4.409 12.083C5.034 12.973 5.919 13.5 6.886 13.5C7.853 13.5 8.738 12.973 9.364 12.083C9.45257 11.9567 9.50006 11.8062 9.5 11.652V9C9.5 8.80109 9.42098 8.61032 9.28033 8.46967C9.13968 8.32902 8.94891 8.25 8.75 8.25H7.25C7.05109 8.25 6.86032 8.32902 6.71967 8.46967C6.57902 8.61032 6.5 8.80109 6.5 9C6.5 9.19891 6.57902 9.38968 6.71967 9.53033C6.86032 9.67098 7.05109 9.75 7.25 9.75H8V11.398C7.63 11.838 7.226 12 6.886 12C6.503 12 6.04 11.795 5.636 11.22C5.226 10.638 5 9.837 5 9C5 8.163 5.226 7.362 5.636 6.78Z" fill="#E1E7FF"/>
</svg>
