<svg width="64" height="64" viewBox="0 0 64 64" fill="none" xmlns="http://www.w3.org/2000/svg">
<path d="M8.5 34.5H12.475C12.75 34.5 12.975 34.275 12.975 34V18.0437H46.0125V22.5812C46.0125 22.7 46.05 22.8125 46.125 22.9062C46.1671 22.9602 46.2195 23.0053 46.2791 23.039C46.3387 23.0726 46.4044 23.0941 46.4724 23.1023C46.5404 23.1104 46.6093 23.105 46.6752 23.0864C46.7411 23.0677 46.8026 23.0363 46.8563 22.9937L55.8125 15.9625C56.0813 15.65 56.0375 15.3187 55.8125 15.1375L46.8563 8.11249C46.7641 8.03876 46.6493 7.99903 46.5312 7.99999C46.2438 7.99999 46.0062 8.23749 46.0062 8.52499V13.0625H12.4812C10.0125 13.0625 8 15.075 8 17.55V34C8 34.275 8.225 34.5 8.5 34.5ZM55.5 29.5H51.525C51.25 29.5 51.025 29.725 51.025 30V45.9562H17.9875V41.4187C17.9875 41.3 17.95 41.1875 17.875 41.0937C17.8329 41.0398 17.7805 40.9946 17.7209 40.961C17.6613 40.9274 17.5956 40.9058 17.5276 40.8977C17.4596 40.8896 17.3907 40.895 17.3248 40.9136C17.2589 40.9322 17.1974 40.9637 17.1437 41.0062L8.1875 48.0375C7.91875 48.35 7.9625 48.6812 8.1875 48.8625L17.1437 55.8875C17.2375 55.9625 17.35 56 17.4688 56C17.7562 56 17.9937 55.7625 17.9937 55.475V50.9375H51.5312C54 50.9375 56.0125 48.925 56.0125 46.45V30C56 29.725 55.775 29.5 55.5 29.5Z" fill="white"/>
</svg>
