<svg width="64" height="64" viewBox="0 0 64 64" fill="none" xmlns="http://www.w3.org/2000/svg">
<path d="M48.2489 60.4444H15.7511C15.067 60.4283 14.3928 60.2775 13.767 60.0007C13.1412 59.7239 12.576 59.3265 12.1039 58.8312C11.6317 58.3359 11.2617 57.7525 11.0151 57.1142C10.7685 56.4759 10.6501 55.7952 10.6667 55.1111V19.9644H14.2222V55.1111C14.2052 55.3284 14.2314 55.5468 14.2991 55.7539C14.3669 55.961 14.4749 56.1527 14.617 56.3179C14.7591 56.4831 14.9324 56.6186 15.127 56.7166C15.3217 56.8146 15.5338 56.8732 15.7511 56.8889H48.2489C48.4662 56.8732 48.6783 56.8146 48.8729 56.7166C49.0676 56.6186 49.2409 56.4831 49.383 56.3179C49.5251 56.1527 49.6331 55.961 49.7008 55.7539C49.7686 55.5468 49.7947 55.3284 49.7778 55.1111V19.9644H53.3333V55.1111C53.3499 55.7952 53.2314 56.4759 52.9848 57.1142C52.7382 57.7525 52.3683 58.3359 51.8961 58.8312C51.4239 59.3265 50.8588 59.7239 50.233 60.0007C49.6072 60.2775 48.933 60.4283 48.2489 60.4444V60.4444Z" fill="white"/>
<path d="M54.72 16H8.88889C8.4174 16 7.96521 15.8127 7.63181 15.4793C7.29842 15.1459 7.11111 14.6937 7.11111 14.2222C7.11111 13.7507 7.29842 13.2986 7.63181 12.9652C7.96521 12.6318 8.4174 12.4445 8.88889 12.4445H54.72C55.1915 12.4445 55.6437 12.6318 55.9771 12.9652C56.3105 13.2986 56.4978 13.7507 56.4978 14.2222C56.4978 14.6937 56.3105 15.1459 55.9771 15.4793C55.6437 15.8127 55.1915 16 54.72 16Z" fill="white"/>
<path d="M37.3333 23.1111H40.8889V49.7778H37.3333V23.1111Z" fill="white"/>
<path d="M23.1111 23.1111H26.6667V49.7778H23.1111V23.1111Z" fill="white"/>
<path d="M40.8889 10.4178H37.5111V7.1111H26.4889V10.4178H23.1111V7.1111C23.11 6.19811 23.4601 5.31968 24.0889 4.65776C24.7177 3.99585 25.5771 3.60119 26.4889 3.55554H37.5111C38.423 3.60119 39.2823 3.99585 39.9111 4.65776C40.5399 5.31968 40.89 6.19811 40.8889 7.1111V10.4178Z" fill="white"/>
</svg>
