<svg width="64" height="64" viewBox="0 0 64 64" fill="none" xmlns="http://www.w3.org/2000/svg">
<path d="M32 10.992L29.132 8.04401C22.4 1.12401 10.056 3.51201 5.60001 12.212C3.50801 16.304 3.03601 22.212 6.85601 29.752C10.536 37.012 18.192 45.708 32 55.18C45.808 45.708 53.46 37.012 57.144 29.752C60.964 22.208 60.496 16.304 58.4 12.212C53.944 3.51201 41.6 1.12001 34.868 8.04001L32 10.992ZM32 60C-29.332 19.472 13.116 -12.16 31.296 4.57201C31.536 4.79201 31.772 5.02001 32 5.25601C32.2257 5.02023 32.4605 4.79338 32.704 4.57601C50.88 -12.168 93.332 19.468 32 60Z" fill="white"/>
</svg>
