<svg width="22" height="22" viewBox="0 0 22 22" fill="none" xmlns="http://www.w3.org/2000/svg">
<path d="M13.9999 10.1428C14.3409 10.1428 14.668 10.0073 14.9091 9.76623C15.1502 9.52511 15.2857 9.19808 15.2857 8.85709C15.2857 8.5161 15.1502 8.18907 14.9091 7.94795C14.668 7.70683 14.3409 7.57138 13.9999 7.57138C13.659 7.57138 13.3319 7.70683 13.0908 7.94795C12.8497 8.18907 12.7142 8.5161 12.7142 8.85709C12.7142 9.19808 12.8497 9.52511 13.0908 9.76623C13.3319 10.0073 13.659 10.1428 13.9999 10.1428ZM9.28566 8.85709C9.28566 9.19808 9.1502 9.52511 8.90909 9.76623C8.66797 10.0073 8.34094 10.1428 7.99995 10.1428C7.65896 10.1428 7.33193 10.0073 7.09081 9.76623C6.84969 9.52511 6.71423 9.19808 6.71423 8.85709C6.71423 8.5161 6.84969 8.18907 7.09081 7.94795C7.33193 7.70683 7.65896 7.57138 7.99995 7.57138C8.34094 7.57138 8.66797 7.70683 8.90909 7.94795C9.1502 8.18907 9.28566 8.5161 9.28566 8.85709ZM6.13823 13.6828C6.27874 13.5872 6.45139 13.5511 6.61845 13.5824C6.7855 13.6137 6.93335 13.7099 7.02966 13.8499L7.03738 13.8602L7.07509 13.9108C7.11109 13.9571 7.16938 14.0274 7.24909 14.1148C7.40938 14.2888 7.65366 14.5262 7.98452 14.7637C8.64281 15.2377 9.6388 15.7142 10.9999 15.7142C12.3611 15.7142 13.3571 15.2377 14.0154 14.7637C14.3462 14.5262 14.5914 14.2888 14.7508 14.1148C14.8257 14.0334 14.8966 13.9484 14.9634 13.8602L14.9694 13.8517C15.0654 13.7107 15.2135 13.6137 15.3811 13.582C15.5487 13.5502 15.722 13.5863 15.8629 13.6824C16.0039 13.7784 16.1009 13.9265 16.1327 14.0941C16.1644 14.2617 16.1283 14.435 16.0322 14.5759L16.0305 14.5768V14.5785L16.0279 14.5811L16.0219 14.5897L16.0031 14.6162C15.9079 14.7436 15.8063 14.866 15.6988 14.9831C15.4168 15.2889 15.1043 15.5652 14.7662 15.8077C13.9348 16.4051 12.6817 16.9999 10.9999 16.9999C9.31823 16.9999 8.06509 16.4051 7.23366 15.8077C6.89558 15.5652 6.5831 15.2889 6.30109 14.9831C6.18669 14.8581 6.07911 14.7271 5.97881 14.5905L5.97195 14.5819L5.97023 14.5785L5.96938 14.5768L5.96852 14.5759C5.87259 14.435 5.83658 14.2617 5.8684 14.0942C5.90023 13.9267 5.99729 13.7787 6.13823 13.6828ZM10.9999 0.714233C5.31966 0.714233 0.714233 5.31966 0.714233 10.9999C0.714233 16.6802 5.31966 21.2857 10.9999 21.2857C16.6802 21.2857 21.2857 16.6802 21.2857 10.9999C21.2857 5.31966 16.6802 0.714233 10.9999 0.714233ZM1.99995 10.9999C1.99995 6.02938 6.02938 1.99995 10.9999 1.99995C15.9705 1.99995 19.9999 6.02938 19.9999 10.9999C19.9999 15.9705 15.9705 19.9999 10.9999 19.9999C6.02938 19.9999 1.99995 15.9705 1.99995 10.9999Z" fill="#E1E7FF"/>
</svg>
