<svg width="481" height="480" viewBox="0 0 481 480" fill="none" xmlns="http://www.w3.org/2000/svg">
<path d="M449.167 182.25C449.167 182.25 457.417 135.75 422.917 156.75C422.917 156.75 419.917 109.5 390.667 142.5C390.667 142.5 374.917 113.25 357.667 140.25C334.417 176.25 318.667 233.25 333.667 327.75L362.167 309C382.417 249.75 455.167 243 464.917 210.75C471.667 188.25 449.167 182.25 449.167 182.25ZM166.417 132L92.1666 159C108.667 69 216.667 75 216.667 75C216.667 75 165.667 99 166.417 132Z" fill="#7B93FF"/>
<path d="M178.417 148.5L99.6666 159C135.667 75 239.917 104.25 239.917 104.25C239.917 104.25 185.167 116.25 178.417 148.5Z" fill="#7B93FF"/>
<path d="M15.6666 217.5L56.1666 207V234C56.1666 233.25 31.4166 229.5 15.6666 217.5ZM56.1666 206.25L15.6666 186C42.6666 165 73.4166 171.75 73.4166 171.75L56.1666 206.25Z" fill="#FFD93B"/>
<path d="M254.167 397.5H238.417V456.75C236.167 457.5 222.667 456 216.667 456C203.167 456 191.917 465.75 191.917 465.75H254.167V397.5ZM188.167 397.5H172.417V456.75C170.167 457.5 156.667 456 150.667 456C137.167 456 125.917 465.75 125.917 465.75H188.167V397.5Z" fill="#E08828"/>
<path d="M405.667 271.5C434.917 271.5 374.917 402.75 230.917 402.75C133.417 402.75 51.6666 363.75 51.6666 241.5C51.6666 165.75 99.6666 104.25 197.917 129C297.667 155.25 246.667 271.5 405.667 271.5Z" fill="#7B93FF"/>
<path d="M282.667 387.75C165.667 387.75 177.667 297.75 73.4166 303.75C111.667 422.25 282.667 387.75 282.667 387.75Z" fill="white"/>
<path d="M293.917 219C218.917 145.5 142.417 265.5 234.667 313.5C325.417 360 387.667 277.5 387.667 277.5C387.667 277.5 341.917 266.25 293.917 219Z" fill="#3856DC"/>
<path d="M113.917 205.5C124.272 205.5 132.667 197.105 132.667 186.75C132.667 176.395 124.272 168 113.917 168C103.561 168 95.1666 176.395 95.1666 186.75C95.1666 197.105 103.561 205.5 113.917 205.5Z" fill="#3E4347"/>
</svg>
