<svg width="29" height="28" viewBox="0 0 29 28" fill="none" xmlns="http://www.w3.org/2000/svg">
<path d="M25.4664 12.789C26.0194 13.5123 26.0194 14.4888 25.4664 15.211C23.7246 17.4848 19.5456 22.1667 14.6666 22.1667C9.7876 22.1667 5.6086 17.4848 3.86676 15.211C3.59771 14.8647 3.45166 14.4386 3.45166 14C3.45166 13.5614 3.59771 13.1354 3.86676 12.789C5.6086 10.5152 9.7876 5.83334 14.6666 5.83334C19.5456 5.83334 23.7246 10.5152 25.4664 12.789V12.789Z" stroke="#55596B" stroke-width="2" stroke-linecap="round" stroke-linejoin="round"/>
<path d="M14.6666 17.5C16.5996 17.5 18.1666 15.933 18.1666 14C18.1666 12.067 16.5996 10.5 14.6666 10.5C12.7336 10.5 11.1666 12.067 11.1666 14C11.1666 15.933 12.7336 17.5 14.6666 17.5Z" stroke="#55596B" stroke-width="2" stroke-linecap="round" stroke-linejoin="round"/>
</svg>
